<?xml version="1.0" standalone="no"?>
<!DOCTYPE svg PUBLIC "-//W3C//DTD SVG 20010904//EN"
 "http://www.w3.org/TR/2001/REC-SVG-20010904/DTD/svg10.dtd">
<svg version="1.0" xmlns="http://www.w3.org/2000/svg"
 width="137.000000pt" height="166.000000pt" viewBox="0 0 137.000000 166.000000"
 preserveAspectRatio="xMidYMid meet">
<metadata>
Created by potrace 1.13, written by Peter Selinger 2001-2015
</metadata>
<g transform="translate(0.000000,166.000000) scale(0.100000,-0.100000)"
fill="#000000" stroke="none">
<path d="M1253 1608 c-12 -13 -37 -50 -57 -83 -57 -96 -125 -196 -207 -302
-110 -142 -192 -263 -180 -263 6 0 11 4 11 9 0 4 12 21 27 37 15 16 28 34 29
40 1 7 49 74 106 150 58 77 128 174 158 217 29 43 59 81 66 84 8 3 12 9 9 13
-9 15 46 100 66 100 31 0 21 -103 -17 -177 -39 -74 -199 -325 -272 -426 -84
-115 -80 -105 -53 -126 21 -16 23 -24 18 -57 -6 -36 -5 -37 8 -20 21 28 19 46
-11 77 l-26 28 34 43 c51 64 116 158 208 303 134 210 169 300 136 350 -20 31
-27 31 -53 3z"/>
<path d="M234 1476 c31 -43 69 -95 86 -116 38 -48 55 -90 36 -90 -14 0 -82 75
-160 178 -26 34 -49 62 -52 62 -8 0 3 -16 77 -116 76 -103 89 -126 89 -150 0
-25 -46 20 -120 116 -31 42 -66 82 -76 90 -10 8 -5 -3 12 -25 59 -77 144 -204
144 -215 0 -25 -29 -6 -58 38 -18 26 -64 81 -103 122 l-71 75 52 -85 c76 -122
149 -231 174 -258 25 -28 114 -72 145 -72 12 0 36 -15 54 -34 18 -18 39 -36
47 -39 13 -4 13 -5 0 -10 -8 -3 -27 -8 -41 -11 -89 -19 -126 -96 -72 -151 94
-95 352 -105 493 -19 l25 15 -29 -6 c-24 -5 -35 0 -72 40 -49 50 -50 53 -31
79 12 17 16 17 51 2 21 -9 48 -16 59 -16 15 0 10 8 -24 32 -43 31 -44 31 -191
36 -82 3 -147 7 -144 9 2 3 -9 26 -25 51 -25 39 -29 56 -29 115 0 37 -5 78
-12 90 -27 52 -152 208 -218 272 l-72 70 56 -79z m192 -226 l24 -26 -26 -27
c-28 -31 -42 -34 -50 -12 -4 8 -11 15 -17 15 -5 0 -3 -8 7 -18 15 -18 15 -20
-3 -36 -18 -16 -20 -16 -35 6 -9 12 -16 18 -16 12 0 -5 5 -15 12 -22 9 -9 8
-15 -7 -26 -16 -12 -22 -12 -41 1 -34 22 -37 43 -9 68 13 13 34 26 45 30 11 4
20 15 20 27 0 14 5 18 15 14 9 -3 21 5 32 21 12 18 18 21 21 12 3 -8 15 -25
28 -39z m211 -343 c7 -4 14 -3 17 2 7 10 88 -9 98 -24 14 -18 8 -25 -19 -26
-19 -1 -22 -3 -9 -6 15 -4 17 -11 13 -38 -4 -27 -2 -33 9 -28 8 3 14 -1 14
-11 0 -22 -41 -31 -145 -31 -81 0 -95 3 -144 30 -30 17 -60 40 -68 51 -12 20
-11 25 10 50 19 22 33 28 66 28 22 1 41 4 41 8 0 9 102 4 117 -5z"/>
<path d="M961 748 c-16 -25 -16 -25 41 -30 58 -6 98 -40 98 -82 0 -28 -25 -92
-40 -101 -13 -8 -135 32 -149 49 -13 15 -17 74 -7 104 5 13 3 22 -3 22 -6 0
-11 -4 -11 -9 0 -4 -7 -47 -15 -94 -17 -95 -29 -131 -59 -164 -27 -32 -18 -35
33 -12 52 23 84 24 101 4 7 -8 19 -15 26 -15 8 0 13 -3 12 -7 -3 -16 15 -43
24 -37 6 4 6 9 -2 14 -31 19 24 79 58 64 9 -4 22 -8 27 -8 17 -2 55 -26 55
-36 0 -12 -111 -71 -121 -64 -5 3 -19 -2 -31 -9 -19 -12 -73 -16 -124 -9 -6 1
-15 17 -19 35 -5 21 -9 26 -12 15 -2 -10 0 -25 5 -34 6 -11 3 -28 -9 -55 -15
-30 -26 -39 -55 -45 -55 -10 -234 18 -234 37 0 4 15 9 33 11 l32 3 -52 27
c-28 15 -58 37 -67 49 -9 13 -19 18 -27 14 -7 -5 -17 -1 -25 10 -8 10 -20 15
-29 11 -8 -3 -36 4 -60 16 -33 16 -45 28 -45 43 0 26 55 105 73 105 31 0 56
-14 66 -37 6 -14 32 -51 56 -83 25 -32 45 -63 45 -69 0 -36 127 -59 177 -32
27 14 53 40 53 52 0 5 -9 0 -19 -10 -22 -22 -88 -35 -131 -26 -21 5 -34 15
-41 33 -6 15 -30 45 -55 68 -50 47 -59 80 -19 70 68 -17 74 -14 15 7 -86 31
-107 43 -123 72 l-13 25 -36 -30 c-44 -36 -88 -121 -88 -170 0 -19 9 -52 19
-71 l20 -37 -31 -28 c-42 -40 -118 -143 -118 -160 0 -7 6 -11 14 -8 18 7 27
-8 16 -26 -7 -12 -11 -12 -26 1 -17 13 -17 13 -2 -9 19 -28 77 -72 95 -72 36
0 95 68 162 185 l23 40 -25 -30 c-29 -33 -37 -23 -11 13 8 12 11 22 7 22 -5 0
-24 -28 -42 -62 -19 -33 -29 -58 -23 -54 7 4 12 2 12 -3 0 -16 -70 -91 -84
-90 -7 0 -6 2 2 6 6 2 12 15 12 27 0 12 16 49 36 82 20 32 42 72 50 87 15 27
14 28 -12 24 -18 -2 -47 -26 -88 -72 -74 -82 -109 -86 -45 -6 23 30 35 51 26
48 -25 -9 -21 6 8 33 23 22 35 17 18 -6 -5 -5 2 1 15 14 12 13 19 28 16 34 -8
13 -5 12 66 -26 90 -47 173 -67 308 -73 262 -12 505 68 505 165 0 35 -33 78
-79 102 -21 12 -26 11 -39 -6 -25 -33 -17 4 12 54 20 34 27 59 27 99 0 29 4
53 8 53 14 0 -11 39 -33 50 -11 6 -42 15 -68 19 -41 6 -50 5 -60 -11z"/>
<path d="M1055 248 c-11 -7 -26 -18 -34 -25 -11 -12 -17 -11 -34 4 -20 18 -20
18 -4 -12 8 -16 37 -61 64 -100 55 -80 87 -94 129 -54 40 38 32 72 -33 140
-31 32 -59 59 -62 59 -3 0 -15 -6 -26 -12z"/>
</g>
</svg>
